<svg id="Layer_1" data-name="Layer 1" xmlns="http://www.w3.org/2000/svg" viewBox="0 0 48 48"><defs><style>.cls-1{fill:none;}.cls-2{fill:#fff;}</style></defs><title>aa</title><g id="Artwork"><rect class="cls-1" width="48" height="48"/><path class="cls-2" d="M18,16a2,2,0,1,1-2-2A2,2,0,0,1,18,16ZM41.4,33.6A2,2,0,0,1,42,35v5a2,2,0,0,1-2,2H33.5a2,2,0,0,1-1.4-.6L20.4,29.8,18,30A12,12,0,1,1,30,18a9.4,9.4,0,0,1-.6,3.6L32.8,25H37a2,2,0,0,1,2,2v4.2ZM38,35.8l-2.4-2.4A2,2,0,0,1,35,32V29H32a2,2,0,0,1-1.4-.6l-5-5a2.1,2.1,0,0,1-.3-2.4h0a5.2,5.2,0,0,0,.8-3.1,8,8,0,1,0-8,8,6.7,6.7,0,0,0,2.4-.4h0a1.9,1.9,0,0,1,2,.5L34.3,38H38Z"/></g></svg>